<svg width="120" height="120" viewBox="0 0 120 120" fill="none" xmlns="http://www.w3.org/2000/svg">
<circle cx="60" cy="60" r="59.5" fill="#F0EBEB" stroke="#D1CDCD"/>
<circle cx="60" cy="60" r="47" fill="#FC9435"/>
<path fill-rule="evenodd" clip-rule="evenodd" d="M43 53.2917C43 44.294 50.6112 37 60 37C69.3888 37 77 44.294 77 53.2917V66.7083C77 75.706 69.3888 83 60 83C58.8954 83 58 82.1419 58 81.0833C58 80.0248 58.8954 79.1667 60 79.1667C67.1797 79.1667 73 73.5889 73 66.7083V53.2917C73 46.4111 67.1797 40.8333 60 40.8333C52.8203 40.8333 47 46.4111 47 53.2917V66.7083C47 67.7669 46.1046 68.625 45 68.625C43.8954 68.625 43 67.7669 43 66.7083V53.2917Z" fill="white"/>
<path d="M37 62C37 58.134 40.134 55 44 55H47V67C47 68.1046 46.1046 69 45 69H44C40.134 69 37 65.866 37 62Z" fill="white"/>
<path d="M83 61.5C83 57.3579 79.6421 54 75.5 54H73V67C73 68.1046 73.8954 69 75 69H75.5C79.6421 69 83 65.6421 83 61.5Z" fill="white"/>
<circle opacity="0.4" cx="53" cy="61" r="2" fill="white"/>
<circle cx="60" cy="61" r="2" fill="white"/>
<circle opacity="0.6" cx="67" cy="61" r="2" fill="white"/>
</svg>
