<svg width="120" height="120" viewBox="0 0 120 120" fill="none" xmlns="http://www.w3.org/2000/svg">
<circle cx="60" cy="60" r="59.5" fill="#F0EBEB" stroke="#D1CDCD"/>
<circle cx="60" cy="60" r="47" fill="#8466FC"/>
<path d="M50 48C50 42.4772 54.4772 38 60 38V38C65.5228 38 70 42.4772 70 48V52C70 54.2091 68.2091 56 66 56H54C51.7909 56 50 54.2091 50 52V48Z" stroke="white" stroke-opacity="0.5" stroke-width="4"/>
<rect x="42" y="52" width="36" height="30" rx="4" fill="white"/>
<path d="M87 77C87 82.5228 82.5228 87 77 87C71.4772 87 67 82.5228 67 77C67 71.4772 71.4772 67 77 67C82.5228 67 87 71.4772 87 77Z" fill="#8466FC"/>
<path d="M79.5246 73.2649C78.6622 72.642 77.6056 72.3568 76.551 72.4623C76.5018 72.467 76.4534 72.4754 76.4032 72.482C76.3085 72.4952 76.2137 72.5074 76.1217 72.5262C76.065 72.5378 76.0086 72.551 75.9526 72.5657C75.8622 72.5858 75.7726 72.6093 75.684 72.6361C75.6422 72.6493 75.6004 72.6643 75.5576 72.6794C75.4332 72.7213 75.3107 72.769 75.1906 72.8222C75.0751 72.8732 74.9619 72.9293 74.8514 72.9904L74.8365 72.998C74.3412 73.2771 73.9021 73.6478 73.5421 74.0909C73.5244 74.1125 73.5077 74.137 73.4901 74.1595C72.8568 74.9679 72.5126 75.9692 72.5134 77.0005H73.5467C73.5603 77.0004 73.5737 77.0042 73.5853 77.0113C73.5969 77.0185 73.6064 77.0287 73.6127 77.0409C73.6192 77.0528 73.6223 77.0663 73.6217 77.0799C73.621 77.0935 73.6166 77.1067 73.609 77.1179L71.8741 79.785C71.8674 79.7957 71.8581 79.8045 71.8471 79.8106C71.8362 79.8167 71.8239 79.8198 71.8114 79.8198C71.7989 79.8198 71.7865 79.8167 71.7756 79.8106C71.7646 79.8045 71.7554 79.7957 71.7486 79.785L70.0128 77.1179C69.9979 77.0963 69.9951 77.0662 70.0091 77.0409C70.023 77.0155 70.0481 77.0005 70.0751 77.0005H71.1084C71.1084 75.7374 71.4931 74.5674 72.1454 73.6004C72.1538 73.5863 72.1594 73.5722 72.1677 73.559C72.2356 73.4603 72.3108 73.3682 72.3833 73.2742C72.4103 73.2395 72.4363 73.2028 72.4642 73.1681C72.571 73.0346 72.6844 72.9115 72.8015 72.7884L72.834 72.7546C73.3452 72.2295 73.9499 71.8071 74.6163 71.5094L74.7241 71.4605C74.8477 71.4079 74.9759 71.3618 75.1032 71.3176C75.1636 71.297 75.2231 71.2753 75.2844 71.2566C75.3969 71.2227 75.5112 71.1945 75.6264 71.1663C75.7035 71.1475 75.7788 71.1278 75.8578 71.1128C75.8894 71.1052 75.92 71.0958 75.9526 71.0911C76.0613 71.0714 76.17 71.0601 76.2797 71.047L76.3967 71.0301C77.7922 70.8862 79.1917 71.2618 80.333 72.0864C80.486 72.1971 80.5897 72.3642 80.6221 72.5515C80.6544 72.7389 80.6127 72.9316 80.5059 73.0882C80.4535 73.1657 80.3864 73.2319 80.3085 73.2828C80.2305 73.3338 80.1433 73.3685 80.0519 73.3849C79.9606 73.4014 79.8669 73.3993 79.7763 73.3786C79.6858 73.358 79.6002 73.3193 79.5246 73.2649ZM82.8318 77.0005C82.8328 78.2106 82.473 79.3929 81.7994 80.3931C81.7892 80.41 81.7827 80.4269 81.7734 80.441C81.6917 80.5566 81.6062 80.6695 81.5169 80.7793L81.4862 80.8197C80.9009 81.5498 80.1507 82.1271 79.2988 82.5029C79.2754 82.5134 79.2522 82.5244 79.2291 82.5357C79.0934 82.5916 78.9562 82.6433 78.8174 82.6908C78.7645 82.7077 78.7152 82.7265 78.6632 82.7416C78.5417 82.7784 78.4189 82.811 78.2952 82.8393C78.2274 82.8553 78.1586 82.8731 78.0889 82.8872C78.0545 82.8938 78.0229 82.9041 77.9886 82.9107C77.8956 82.9276 77.8027 82.9342 77.7098 82.9464C77.6466 82.9549 77.5825 82.9652 77.5183 82.9718C77.3638 82.9857 77.2088 82.9935 77.0537 82.9953C77.0258 82.9953 76.998 83 76.9692 83C75.7642 83.0021 74.5888 82.6225 73.6081 81.9146C73.4548 81.8039 73.3506 81.6368 73.3181 81.4492C73.2856 81.2616 73.3273 81.0686 73.4343 80.9118C73.4868 80.8345 73.554 80.7685 73.632 80.7177C73.71 80.6669 73.7972 80.6323 73.8885 80.6159C73.9799 80.5996 74.0735 80.6018 74.164 80.6224C74.2545 80.643 74.34 80.6817 74.4156 80.7361C75.2799 81.3587 76.3378 81.6438 77.3938 81.5386L77.5118 81.5217C77.6187 81.5095 77.7237 81.4935 77.8269 81.4729C77.8724 81.4644 77.9179 81.4522 77.9625 81.4418C78.0638 81.4183 78.166 81.393 78.2645 81.3629L78.3575 81.33C78.4708 81.2924 78.5814 81.252 78.6911 81.205L78.7254 81.189C79.3806 80.9005 79.9558 80.456 80.4046 79.8997L80.413 79.8884C81.0692 79.0721 81.4267 78.0516 81.4249 76.9995H80.3925C80.3789 76.9997 80.3656 76.9961 80.3539 76.9891C80.3422 76.9821 80.3326 76.972 80.3262 76.9599C80.3198 76.9478 80.3168 76.9341 80.3175 76.9204C80.3182 76.9067 80.3226 76.8934 80.3303 76.8821L82.067 74.2159C82.0738 74.2054 82.083 74.1968 82.0939 74.1909C82.1048 74.1849 82.1169 74.1818 82.1293 74.1818C82.1417 74.1818 82.1538 74.1849 82.1647 74.1909C82.1756 74.1968 82.1848 74.2054 82.1915 74.2159L83.9265 76.8821C83.9392 76.8822 83.9518 76.8857 83.9628 76.8921C83.9739 76.8986 83.9831 76.9078 83.9896 76.919C83.9962 76.9301 83.9997 76.9427 84 76.9556C84.0003 76.9686 83.9972 76.9814 83.9912 76.9927C83.9851 77.0041 83.9763 77.0138 83.9655 77.0207C83.9547 77.0276 83.9423 77.0316 83.9296 77.0323C83.9168 77.033 83.9041 77.0303 83.8926 77.0246C83.8812 77.0188 83.8714 77.0102 83.8642 76.9995H82.8318V77.0005Z" fill="white"/>
<path d="M57.8206 68.3641H54.6007C54.1803 68.3641 53.8903 67.9536 54.0399 67.5706L57.2395 59.377C57.2827 59.2661 57.3595 59.1707 57.4596 59.1034C57.5597 59.0361 57.6785 59 57.8001 59H63.1992C63.6252 59 63.9156 59.4211 63.7548 59.8061L61.8918 64.2673H65.399C65.9148 64.2673 66.19 64.8605 65.8498 65.2387L57.2511 74.7977C56.8331 75.2625 56.0581 74.8598 56.2203 74.2621L57.8206 68.3641Z" fill="#8466FC"/>
</svg>
