<svg width="120" height="120" viewBox="0 0 120 120" fill="none" xmlns="http://www.w3.org/2000/svg">
<circle cx="60" cy="60" r="59.5" fill="#F0EBEB" stroke="#D1CDCD"/>
<circle cx="60" cy="60" r="47" fill="#18C1CC"/>
<path d="M73.898 77.6792L73.6612 78.5626L63.4962 73.6237C62.2114 75.6519 58.9803 76.603 55.7436 75.7357C52.5034 74.8675 50.1816 72.425 50.1023 69.9544L38.9281 69.0952L39.1648 68.2117C40.5092 63.1946 42.943 59.9718 47.0653 57.8339C49.7416 43.2121 58.8813 35.9371 66.5004 34.0234L66.9473 33.909L67.2738 34.2306C72.9187 39.6984 77.1146 50.5467 72.2024 64.5728C74.7853 68.5074 75.2816 72.5153 73.898 77.6792ZM64.6439 56.0661C67.1216 54.8327 68.0855 51.8485 66.75 49.4326C65.4135 47.02 62.2953 46.0238 59.8141 47.2562C57.3364 48.4896 56.3716 51.4771 57.7081 53.8897C59.0436 56.3055 62.1662 57.2994 64.6439 56.0661Z" fill="white"/>
<path d="M53.0086 86.0791C53.0086 86.0791 56.3689 83.419 56.9419 81.2805C57.3769 79.657 56.6524 78.0408 55.2623 77.6683C53.8722 77.2958 52.44 78.3341 52.005 79.9576C51.4913 81.8745 53.0086 86.0791 53.0086 86.0791Z" fill="white" fill-opacity="0.5"/>
</svg>
