<svg width="120" height="120" viewBox="0 0 120 120" fill="none" xmlns="http://www.w3.org/2000/svg">
<circle cx="60" cy="60" r="59.5" fill="#F0EBEB" stroke="#D1CDCD"/>
<circle cx="60" cy="60" r="47" fill="#F95669"/>
<path fill-rule="evenodd" clip-rule="evenodd" d="M76.0595 40.6811L76.1647 40.7179C78.4585 41.5171 80 43.8463 80 46.5172V64.3464C80 67.4853 78.911 70.4927 76.7644 73.2951C75.1335 75.4245 72.8923 77.4278 70.0934 79.2575C66.0687 81.8916 62.086 83.3848 60.9601 83.7844C60.6761 83.9211 60.3551 84 60.0237 84C59.5975 84 59.366 83.9159 58.498 83.5899C57.814 83.3323 57.0985 83.0431 56.3672 82.7224C54.7626 82.0231 52.3372 80.8506 49.9066 79.2627C47.113 77.433 44.8665 75.4245 43.2356 73.3004C41.089 70.498 40 67.4853 40 64.3516V46.5172C40 43.8463 41.5415 41.5171 43.8353 40.7179L43.9405 40.6811L59.4976 36.0578C59.6501 36.021 59.8027 36 59.9553 36H60.0447C60.1973 36.0053 60.3499 36.021 60.5024 36.0578L76.0595 40.6811ZM72.8476 44.3772L72.9317 44.4075C74.7668 45.0647 76 46.9801 76 49.1765V63.8381C76 66.4193 75.1288 68.8925 73.4116 71.197C72.1068 72.9481 70.3138 74.5954 68.0747 76.1C64.8549 78.2662 61.6688 79.4941 60.7681 79.8227C60.5408 79.9351 60.2841 80 60.0189 80C59.678 80 59.4928 79.9308 58.7984 79.6628C58.2512 79.4509 57.6788 79.2131 57.0938 78.9493C55.8101 78.3743 53.8698 77.4101 51.9253 76.1044C49.6904 74.5997 47.8932 72.9481 46.5885 71.2013C44.8712 68.8968 44 66.4193 44 63.8424V49.1765C44 46.9801 45.2332 45.0647 47.0683 44.4075L47.1524 44.3772L59.5981 40.0476C59.7201 40.0173 59.8422 40 59.9642 40H60.0358C60.1578 40.0043 60.2799 40.0173 60.402 40.0476L72.8476 44.3772Z" fill="white"/>
<path d="M69.6988 48.3056L69.6357 48.2829L60.3015 45.0357C60.2099 45.013 60.1184 45.0032 60.0268 45H59.9732C59.8816 45 59.7901 45.013 59.6985 45.0357L50.3643 48.2829L50.3012 48.3056C48.9249 48.7985 48 50.235 48 51.8824V62.8818C48 64.8145 48.6534 66.6726 49.9413 68.401C50.9199 69.7111 52.2678 70.9498 53.944 72.0783C55.4023 73.0576 56.8576 73.7807 57.8203 74.212C58.2591 74.4098 58.6884 74.5882 59.0988 74.7471C59.6196 74.9481 59.7585 75 60.0142 75C60.2131 75 60.4056 74.9514 60.5761 74.867C61.2516 74.6206 63.6412 73.6997 66.056 72.075C67.7354 70.9466 69.0801 69.7111 70.0587 68.3977C71.3466 66.6694 72 64.8145 72 62.8786V51.8824C72 50.235 71.0751 48.7985 69.6988 48.3056Z" fill="white" fill-opacity="0.4"/>
<rect x="55.8284" y="56.1212" width="8" height="4" rx="2" transform="rotate(45 55.8284 56.1212)" fill="white"/>
<rect x="66.4351" y="56.8284" width="11" height="4" rx="2" transform="rotate(135 66.4351 56.8284)" fill="white"/>
</svg>
