<svg width="120" height="120" viewBox="0 0 120 120" fill="none" xmlns="http://www.w3.org/2000/svg">
<circle cx="60" cy="60" r="59.5" fill="#F0EBEB" stroke="#D1CDCD"/>
<circle cx="60" cy="60" r="47" fill="#3B98FF"/>
<path d="M38.4056 65.7668H40.8033L42.5396 63.6455C44.0279 61.7788 46.7564 61.5243 48.5753 63.0516C49.2368 63.6455 49.7329 64.4092 49.9809 65.2577C51.4692 65.682 52.544 66.785 52.9574 68.3123C54.0323 68.6517 54.9418 69.3305 55.4379 70.3488C56.3474 70.5185 57.1742 70.9427 57.8356 71.6215C59.2412 73.064 59.4892 75.3549 58.4144 77.052L58.1663 77.4762V77.5611C59.3239 78.3247 60.8121 78.0702 61.639 76.9671C62.0524 76.3732 62.135 75.6943 62.0524 75.0155V74.9307H62.135L62.3004 75.1004C63.1272 75.9489 64.5328 76.1186 65.525 75.4398C66.3518 74.8458 66.6825 73.8276 66.5171 72.8943V72.8094H66.5998L66.7652 72.9791C67.592 73.8276 68.9149 73.9973 69.9897 73.3185C70.8165 72.7246 71.23 71.7064 71.0646 70.773H71.1473L71.3126 70.9427C72.1394 71.7912 73.3797 71.8761 74.2892 71.367C75.4467 70.6882 75.8601 69.076 75.116 67.8881C75.0333 67.7184 74.9506 67.6335 74.8679 67.4638L73.297 65.682L61.0602 50.5785C60.8948 50.4088 60.7295 50.4088 60.5641 50.4937L54.6937 53.8029C52.7921 54.8211 50.5597 55.0756 48.5753 54.312C47.4178 53.8877 46.591 53.0392 46.1776 51.9361C45.8469 50.7482 46.0122 49.5603 46.591 48.5421C46.7564 48.2876 46.6737 47.9482 46.343 47.7785C46.2603 47.6936 46.1776 47.6936 46.0949 47.6936H38.1575C37.4961 47.6088 37 48.1179 37 48.7118V64.6638C37.248 65.2577 37.7441 65.7668 38.4056 65.7668Z" fill="white" fill-opacity="0.5"/>
<path d="M48.616 49.6135L56.6334 43.6013C58.8651 41.9542 61.758 41.5424 64.3202 42.5307L77.1316 47.3074C77.9581 47.6369 78.8673 47.8016 79.6939 47.8016H81.8429C82.4215 47.8016 83 48.2957 83 48.8722V64.4378C83 65.0143 82.5041 65.5908 81.8429 65.5908H79.0326C78.6194 65.5908 78.2061 65.7555 77.9581 66.0026L77.3796 66.4968C77.2143 66.6615 76.9663 66.5791 76.8836 66.4144L61.9233 48.4604C61.51 47.9663 60.8488 47.8839 60.3528 48.2134L53.4926 52.0018C52.0874 52.743 50.517 52.8254 49.0292 52.2489C48.2854 51.9195 47.8721 51.0135 48.2027 50.2723C48.2854 49.9429 48.4507 49.7782 48.616 49.6135ZM46.5496 64.3555C45.6404 63.8613 44.4833 64.1084 43.822 64.932L42.169 66.9086C41.4251 67.8145 41.5904 69.1322 42.4169 69.7911L42.5367 69.8627C42.5944 69.8972 42.6558 69.9253 42.7196 69.9465C42.7381 69.9527 42.7555 69.9618 42.7713 69.9733C43.4304 70.4518 44.3268 70.5274 45.0619 70.1205C45.1445 70.0381 45.1445 70.1205 45.2272 70.2029V70.3676C45.0619 71.1088 45.3925 71.9324 45.971 72.3442L46.1364 72.5089C46.7976 73.003 47.6241 73.0854 48.368 72.756C48.4507 72.6736 48.5333 72.7559 48.5333 72.8383V72.9207C48.4507 73.5795 48.7813 74.3207 49.3599 74.8149L49.5252 74.8973C50.1864 75.3914 51.0129 75.4738 51.7568 75.062C51.8395 74.9796 51.9221 75.062 51.9221 75.1443V75.2267C52.0048 75.7208 52.3354 76.215 52.7487 76.5444L52.8313 76.6268C53.7405 77.2856 55.063 77.2033 55.8069 76.215C55.8895 76.1326 55.9722 76.0503 55.9722 75.9679L56.2201 75.4738C56.7161 74.5678 56.6334 73.4972 55.8069 72.8383C55.2283 72.2618 54.3191 72.1794 53.4926 72.4265C53.4099 72.4265 53.4099 72.4265 53.4099 72.3442V72.2618C53.4926 71.1088 52.5834 70.2029 51.4262 70.0381C51.1783 70.0381 50.8476 70.1205 50.5997 70.2029C50.2691 70.2852 50.3517 69.9558 50.3517 69.9558C50.765 68.8851 50.2691 67.7321 49.1946 67.238C48.616 66.9909 47.9547 67.0733 47.3762 67.3203C47.1282 67.4027 47.2109 67.1556 47.2109 67.1556C47.8721 66.1673 47.5415 64.932 46.5496 64.3555Z" fill="white"/>
</svg>
