<svg width="120" height="120" viewBox="0 0 120 120" fill="none" xmlns="http://www.w3.org/2000/svg">
<circle cx="60" cy="60" r="59.5" fill="#F0EBEB" stroke="#D1CDCD"/>
<circle cx="60" cy="60" r="47" fill="#15CC8A"/>
<path d="M80.8282 69.1106C80.4532 69.1106 80.0365 69.1869 79.5782 69.3604C77.5365 70.1377 75.5157 70.9567 73.481 71.7479C72.4672 72.1435 71.4463 72.5322 70.4255 72.907C69.613 73.2054 68.6964 73.6912 67.8144 73.6912C65.4603 73.6912 58.3632 71.734 56.9882 71.1372C55.0993 70.3182 55.9743 67.8682 57.8007 67.8682C57.9535 67.8682 58.1062 67.8821 58.266 67.9168C60.4048 68.3749 65.2381 69.3604 68.3214 70.0822C68.5853 70.1447 68.8353 70.1724 69.0714 70.1724C71.6477 70.1724 72.7866 66.8688 70.3491 66.2025C67.6964 65.4807 56.6965 61.8647 54.5091 61.8647H54.391C54.3771 61.8647 54.3563 61.8647 54.3424 61.8717H54.3216C54.3007 61.8717 54.2799 61.8786 54.2521 61.8786H54.2452C54.2174 61.8786 54.1896 61.8856 54.1688 61.8925C53.0299 62.073 51.9396 62.4824 50.8563 62.8642C49.7591 63.2528 48.6758 63.6484 47.5925 64.0718C46.9744 64.3147 46.3633 64.5576 45.7453 64.8075C45.0925 65.0712 44.4328 65.3419 43.78 65.6126C41.9953 66.3483 40.2106 67.0909 38.4537 67.8821C38.1829 68.007 37.912 68.125 37.6482 68.2569C35.7107 69.2077 38.4745 78.8549 41.2314 78.8549C41.3703 78.8549 41.5162 78.8272 41.6551 78.7786C44.537 77.682 47.3355 76.3078 48.6619 76.1134C48.6966 76.1065 48.7314 76.1065 48.78 76.1065C50.5924 76.1065 62.8215 79.778 64.377 79.9931C64.4048 80.0001 64.4395 80.0001 64.4812 80.0001C66.4672 80.0001 79.1337 74.3783 81.1962 73.5941C83.9392 72.5599 83.342 69.1106 80.8282 69.1106Z" fill="white" fill-opacity="0.5"/>
<path d="M66.8139 40C64.4369 40 62.7338 41.9557 61.9997 42.99C61.2651 41.9557 59.563 40 57.1857 40C53.7745 40 51 42.8065 51 46.2559C51 47.8684 52.1983 50.1809 53.6531 51.3908C55.6653 53.7512 61.3223 58 62.0208 58C62.7316 58 68.2671 53.8338 70.3159 51.4193C71.796 50.1877 73 47.8724 73 46.2559C73 42.8065 70.2254 40 66.8139 40Z" fill="white"/>
</svg>
